{
  "source": "C:\\Users\\Peter\\Desktop\\stuff\\MIUN\\quantitative_research\\video_compression\\videos\\BVI-HD\\BVI-HD_CDVL_videos\\ORIG\\Fountain_1920x1080_50fps.mp4",
  "output": "C:\\Users\\Peter\\Desktop\\stuff\\MIUN\\quantitative_research\\video_compression\\compressed_videos\\BVI-HD\\h264\\8\\Fountain_1920x1080_50fps_h264.mp4",
  "codec": "h264",
  "ok": "Input #0, mov,mp4,m4a,3gp,3g2,mj2, from 'C:\\Users\\Peter\\Desktop\\stuff\\MIUN\\quantitative_research\\video_compression\\videos\\BVI-HD\\BVI-HD_CDVL_videos\\ORIG\\Fountain_1920x1080_50fps.mp4':\n  Metadata:\n    major_brand     : isom\n    minor_version   : 512\n    compatible_brands: isomiso2avc1mp41\n    encoder         : Lavf54.28.101\n  Duration: 00:00:05.00, start: 0.000000, bitrate: 603457 kb/s\n  Stream #0:0[0x1](und): Video: h264 (High 4:4:4 Predictive) (avc1 / 0x31637661), yuv420p(progressive), 1920x1080, 603453 kb/s, 50 fps, 50 tbr, 50 tbn (default)\n    Metadata:\n      handler_name    : VideoHandler\n      vendor_id       : [0][0][0][0]\n[out#0/mp4 @ 000002431f029bc0] Codec AVOption b:a (set bitrate (in bits/s)) has not been used for any stream. The most likely reason is either wrong type (e.g. a video option with no video streams) or that it is a private option of some decoder which was not actually used for any stream.\nStream mapping:\n  Stream #0:0 -> #0:0 (h264 (native) -> h264 (libx264))\nPress [q] to stop, [?] for help\n[libx264 @ 000002431f5d5980] using cpu capabilities: MMX2 SSE2Fast SSSE3 SSE4.2 AVX FMA3 BMI2 AVX2\n[libx264 @ 000002431f5d5980] profile High, level 5.0, 4:2:0, 8-bit\n[libx264 @ 000002431f5d5980] 264 - core 165 r3222 b35605a - H.264/MPEG-4 AVC codec - Copyleft 2003-2025 - http://www.videolan.org/x264.html - options: cabac=1 ref=5 deblock=1:0:0 analyse=0x3:0x113 me=hex subme=8 psy=1 psy_rd=1.00:0.00 mixed_ref=1 me_range=16 chroma_me=1 trellis=2 8x8dct=1 cqm=0 deadzone=21,11 fast_pskip=1 chroma_qp_offset=-2 threads=18 lookahead_threads=3 sliced_threads=0 nr=0 decimate=1 interlaced=0 bluray_compat=0 constrained_intra=0 bframes=3 b_pyramid=2 b_adapt=1 b_bias=0 direct=3 weightb=1 open_gop=0 weightp=2 keyint=250 keyint_min=25 scenecut=40 intra_refresh=0 rc_lookahead=50 rc=cbr mbtree=1 bitrate=8000 ratetol=1.0 qcomp=0.60 qpmin=0 qpmax=69 qpstep=4 vbv_maxrate=8000 vbv_bufsize=8000 nal_hrd=none filler=0 ip_ratio=1.40 aq=1:1.00\nOutput #0, mp4, to 'C:\\Users\\Peter\\Desktop\\stuff\\MIUN\\quantitative_research\\video_compression\\compressed_videos\\BVI-HD\\h264\\8\\Fountain_1920x1080_50fps_h264.mp4':\n  Metadata:\n    major_brand     : isom\n    minor_version   : 512\n    compatible_brands: isomiso2avc1mp41\n    encoder         : Lavf62.3.100\n  Stream #0:0(und): Video: h264 (avc1 / 0x31637661), yuv420p(tv, progressive), 1920x1080, q=2-31, 8000 kb/s, 50 fps, 12800 tbn (default)\n    Metadata:\n      encoder         : Lavc62.11.100 libx264\n      handler_name    : VideoHandler\n      vendor_id       : [0][0][0][0]\n    Side data:\n      cpb: bitrate max/min/avg: 8000000/0/8000000 buffer size: 8000000 vbv_delay: N/A\nframe=    0 fps=0.0 q=0.0 size=       0KiB time=N/A bitrate=N/A speed=N/A elapsed=0:00:01.01    \nframe=    0 fps=0.0 q=0.0 size=       0KiB time=N/A bitrate=N/A speed=N/A elapsed=0:00:01.54    \nframe=    0 fps=0.0 q=0.0 size=       0KiB time=N/A bitrate=N/A speed=N/A elapsed=0:00:02.10    \nframe=    5 fps=1.9 q=36.0 size=       0KiB time=00:00:00.06 bitrate=   6.4kbits/s speed=0.0227x elapsed=0:00:02.64    \nframe=   15 fps=4.6 q=35.0 size=       0KiB time=00:00:00.22 bitrate=   1.7kbits/s speed=0.068x elapsed=0:00:03.23    \nframe=   29 fps=7.6 q=34.0 size=     256KiB time=00:00:00.54 bitrate=3884.3kbits/s speed=0.142x elapsed=0:00:03.80    \nframe=   41 fps=9.4 q=35.0 size=     512KiB time=00:00:00.78 bitrate=5377.8kbits/s speed=0.178x elapsed=0:00:04.37    \nframe=   57 fps= 11 q=36.0 size=    1024KiB time=00:00:01.10 bitrate=7626.4kbits/s speed=0.22x elapsed=0:00:05.00    \nframe=   69 fps= 12 q=35.0 size=    1024KiB time=00:00:01.34 bitrate=6260.4kbits/s speed=0.239x elapsed=0:00:05.61    \nframe=   89 fps= 14 q=35.0 size=    1536KiB time=00:00:01.70 bitrate=7401.9kbits/s speed=0.276x elapsed=0:00:06.16    \nframe=  102 fps= 15 q=35.0 size=    1536KiB time=00:00:02.00 bitrate=6291.6kbits/s speed=0.295x elapsed=0:00:06.77    \nframe=  111 fps= 15 q=35.0 size=    1792KiB time=00:00:02.16 bitrate=6796.5kbits/s speed=0.293x elapsed=0:00:07.38    \nframe=  127 fps= 16 q=36.0 size=    2304KiB time=00:00:02.46 bitrate=7672.7kbits/s speed=0.309x elapsed=0:00:07.96    \nframe=  134 fps= 16 q=36.0 size=    2304KiB time=00:00:02.64 bitrate=7149.5kbits/s speed=0.307x elapsed=0:00:08.59    \nframe=  151 fps= 17 q=36.0 size=    2816KiB time=00:00:02.98 bitrate=7741.3kbits/s speed=0.327x elapsed=0:00:09.12    \nframe=  168 fps= 17 q=36.0 size=    3072KiB time=00:00:03.32 bitrate=7580.2kbits/s speed=0.343x elapsed=0:00:09.67    \nframe=  188 fps= 18 q=35.0 size=    3328KiB time=00:00:03.72 bitrate=7328.9kbits/s speed=0.362x elapsed=0:00:10.27    \nframe=  204 fps= 19 q=35.0 size=    3584KiB time=00:00:04.04 bitrate=7267.5kbits/s speed=0.374x elapsed=0:00:10.80    \nframe=  213 fps= 19 q=34.0 size=    3840KiB time=00:00:04.16 bitrate=7561.9kbits/s speed=0.365x elapsed=0:00:11.40    \nframe=  237 fps= 20 q=-1.0 size=    4352KiB time=00:00:04.68 bitrate=7617.9kbits/s speed=0.39x elapsed=0:00:11.98    \n[mp4 @ 000002431f03a980] Starting second pass: moving the moov atom to the beginning of the file\n[out#0/mp4 @ 000002431f029bc0] video:4733KiB audio:0KiB subtitle:0KiB other streams:0KiB global headers:0KiB muxing overhead: 0.080694%\nframe=  250 fps= 20 q=-1.0 Lsize=    4737KiB time=00:00:04.96 bitrate=7823.5kbits/s speed=0.405x elapsed=0:00:12.23    \n[libx264 @ 000002431f5d5980] frame I:2     Avg QP:31.74  size: 81230\n[libx264 @ 000002431f5d5980] frame P:64    Avg QP:34.44  size: 28826\n[libx264 @ 000002431f5d5980] frame B:184   Avg QP:36.09  size: 15427\n[libx264 @ 000002431f5d5980] consecutive B-frames:  1.6%  0.8%  0.0% 97.6%\n[libx264 @ 000002431f5d5980] mb I  I16..4: 20.9% 67.2% 11.8%\n[libx264 @ 000002431f5d5980] mb P  I16..4:  2.3%  4.2%  0.2%  P16..4: 56.1%  8.6%  9.3%  0.0%  0.0%    skip:19.3%\n[libx264 @ 000002431f5d5980] mb B  I16..4:  0.2%  0.5%  0.0%  B16..8: 56.7%  4.3%  0.4%  direct: 4.8%  skip:32.9%  L0:51.0% L1:48.2% BI: 0.9%\n[libx264 @ 000002431f5d5980] 8x8 transform intra:64.5% inter:74.8%\n[libx264 @ 000002431f5d5980] direct mvs  spatial:94.6% temporal:5.4%\n[libx264 @ 000002431f5d5980] coded y,uvDC,uvAC intra: 56.4% 27.8% 6.3% inter: 18.7% 12.0% 0.1%\n[libx264 @ 000002431f5d5980] i16 v,h,dc,p: 46% 29%  3% 22%\n[libx264 @ 000002431f5d5980] i8 v,h,dc,ddl,ddr,vr,hd,vl,hu:  9%  4%  5% 12% 17% 16% 16% 10% 11%\n[libx264 @ 000002431f5d5980] i4 v,h,dc,ddl,ddr,vr,hd,vl,hu: 11%  3%  9% 13% 15% 15% 11% 11% 12%\n[libx264 @ 000002431f5d5980] i8c dc,h,v,p: 60% 25%  8%  6%\n[libx264 @ 000002431f5d5980] Weighted P-Frames: Y:0.0% UV:0.0%\n[libx264 @ 000002431f5d5980] ref P L0: 41.7% 11.3% 23.1% 12.3% 11.5%  0.1%\n[libx264 @ 000002431f5d5980] ref B L0: 66.9% 20.6%  9.4%  3.0%\n[libx264 @ 000002431f5d5980] ref B L1: 91.2%  8.8%\n[libx264 @ 000002431f5d5980] kb/s:7753.47\n",
  "seconds": 12.565181970596313,
  "probe_out": {}
}